<svg width="136" height="30" viewBox="0 0 136 30" fill="none" xmlns="http://www.w3.org/2000/svg">
<g clip-path="url(#clip0_1511_63)">
<path d="M13.4977 28.3341C5.79874 28.3341 -0.00012207 22.1537 -0.00012207 14.5234C-0.00012207 6.86773 5.50263 0.636353 13.4977 0.636353C17.742 0.636353 20.6783 1.95892 22.9732 4.9856L19.2718 8.114C17.7173 6.43534 15.8419 5.59602 13.4977 5.59602C8.29102 5.59602 5.4286 9.64005 5.4286 14.5234C5.4286 19.4068 8.56245 23.3745 13.4977 23.3745C15.8172 23.3745 17.7913 22.5352 19.3459 20.8565L22.9979 24.1121C20.8018 27.0115 17.7913 28.3341 13.4977 28.3341Z" fill="url(#paint0_linear_1511_63)"/>
<path d="M38.9387 8.01153H43.9232V27.8502H38.9387V24.9507C37.9023 27.0109 36.1749 28.3843 32.8684 28.3843C27.5877 28.3843 23.368 23.7299 23.368 18.0072C23.368 12.2845 27.5877 7.63 32.8684 7.63C36.1503 7.63 37.9023 9.00346 38.9387 11.0636V8.01153ZM39.0867 18.0072C39.0867 14.9042 36.9892 12.3353 33.6827 12.3353C30.4994 12.3353 28.4266 14.9296 28.4266 18.0072C28.4266 21.0083 30.4994 23.679 33.6827 23.679C36.9646 23.679 39.0867 21.0847 39.0867 18.0072Z" fill="url(#paint1_linear_1511_63)"/>
<path d="M47.4518 -0.00012207H52.4363V27.8249H47.4518V-0.00012207Z" fill="url(#paint2_linear_1511_63)"/>
<path d="M54.6571 25.2057C54.6571 23.578 55.9403 22.2045 57.6922 22.2045C59.4443 22.2045 60.6781 23.578 60.6781 25.2057C60.6781 26.8844 59.4196 28.2578 57.6922 28.2578C55.965 28.2578 54.6571 26.8844 54.6571 25.2057Z" fill="url(#paint3_linear_1511_63)"/>
<path d="M79.7526 24.6455C77.9019 26.9345 75.0888 28.3843 71.7575 28.3843C65.8106 28.3843 61.443 23.7299 61.443 18.0072C61.443 12.2845 65.8106 7.63 71.7575 7.63C74.9654 7.63 77.7539 9.00346 79.6046 11.1654L75.7551 14.4464C74.7927 13.2255 73.5342 12.3099 71.7575 12.3099C68.5744 12.3099 66.5016 14.9042 66.5016 17.9817C66.5016 21.0592 68.5744 23.6535 71.7575 23.6535C73.6823 23.6535 75.0148 22.6362 76.0018 21.2627L79.7526 24.6455Z" fill="url(#paint4_linear_1511_63)"/>
<path d="M80.1723 18.0072C80.1723 12.2845 84.5399 7.63 90.4868 7.63C96.4338 7.63 100.801 12.2845 100.801 18.0072C100.801 23.7299 96.4338 28.3843 90.4868 28.3843C84.5399 28.3588 80.1723 23.7299 80.1723 18.0072ZM95.7428 18.0072C95.7428 14.9042 93.67 12.3353 90.4868 12.3353C87.3037 12.3099 85.2309 14.9042 85.2309 18.0072C85.2309 21.0847 87.3037 23.679 90.4868 23.679C93.67 23.679 95.7428 21.0847 95.7428 18.0072Z" fill="url(#paint5_linear_1511_63)"/>
<path d="M134.508 15.7182V27.8249H129.524V16.9645C129.524 13.5309 127.945 12.0557 125.576 12.0557C123.355 12.0557 121.776 13.1748 121.776 16.9645V27.8249H116.791V16.9645C116.791 13.5309 115.187 12.0557 112.843 12.0557C110.622 12.0557 108.673 13.1748 108.673 16.9645V27.8249H103.688V7.98626H108.673V10.7332C109.709 8.59668 111.585 7.52844 114.472 7.52844C117.211 7.52844 119.506 8.90188 120.764 11.2164C122.023 8.85102 123.873 7.52844 127.229 7.52844C131.325 7.55388 134.508 10.7077 134.508 15.7182Z" fill="url(#paint6_linear_1511_63)"/>
</g>
<defs>
<linearGradient id="paint0_linear_1511_63" x1="-0.00012207" y1="3.01896" x2="23.2555" y2="3.56756" gradientUnits="userSpaceOnUse">
<stop stop-color="#333333"/>
<stop offset="0.5" stop-color="#222222"/>
<stop offset="0.66" stop-color="#333333"/>
<stop offset="1" stop-color="#111111"/>
</linearGradient>
<linearGradient id="paint1_linear_1511_63" x1="23.368" y1="9.41532" x2="44.1485" y2="10" gradientUnits="userSpaceOnUse">
<stop stop-color="#333333"/>
<stop offset="0.5" stop-color="#222222"/>
<stop offset="0.66" stop-color="#333333"/>
<stop offset="1" stop-color="#111111"/>
</linearGradient>
<linearGradient id="paint2_linear_1511_63" x1="47.4518" y1="2.39343" x2="52.4948" y2="2.41909" gradientUnits="userSpaceOnUse">
<stop stop-color="#333333"/>
<stop offset="0.5" stop-color="#222222"/>
<stop offset="0.66" stop-color="#333333"/>
<stop offset="1" stop-color="#111111"/>
</linearGradient>
<linearGradient id="paint3_linear_1511_63" x1="54.6571" y1="22.7252" x2="60.7441" y2="22.8972" gradientUnits="userSpaceOnUse">
<stop stop-color="#333333"/>
<stop offset="0.5" stop-color="#222222"/>
<stop offset="0.66" stop-color="#333333"/>
<stop offset="1" stop-color="#111111"/>
</linearGradient>
<linearGradient id="paint4_linear_1511_63" x1="61.443" y1="9.41532" x2="79.9563" y2="9.87934" gradientUnits="userSpaceOnUse">
<stop stop-color="#333333"/>
<stop offset="0.5" stop-color="#222222"/>
<stop offset="0.66" stop-color="#333333"/>
<stop offset="1" stop-color="#111111"/>
</linearGradient>
<linearGradient id="paint5_linear_1511_63" x1="80.1723" y1="9.41532" x2="101.027" y2="10.0043" gradientUnits="userSpaceOnUse">
<stop stop-color="#333333"/>
<stop offset="0.5" stop-color="#222222"/>
<stop offset="0.66" stop-color="#333333"/>
<stop offset="1" stop-color="#111111"/>
</linearGradient>
<linearGradient id="paint6_linear_1511_63" x1="103.688" y1="9.27437" x2="134.813" y2="10.6171" gradientUnits="userSpaceOnUse">
<stop stop-color="#333333"/>
<stop offset="0.5" stop-color="#222222"/>
<stop offset="0.66" stop-color="#333333"/>
<stop offset="1" stop-color="#111111"/>
</linearGradient>
<clipPath id="clip0_1511_63">
<rect width="135.539" height="29.9447" fill="white"/>
</clipPath>
</defs>
</svg>
