<svg width="116" height="30" viewBox="0 0 116 30" fill="none" xmlns="http://www.w3.org/2000/svg">
<g clip-path="url(#clip0_1511_48)">
<path d="M14.2015 29.5462C11.6288 29.5462 9.28663 28.9277 7.17506 27.6905C5.06349 26.4534 3.40094 24.7461 2.18739 22.5687C0.973839 20.3913 0.367065 17.9541 0.367065 15.2571C0.367065 12.5601 0.961705 10.123 2.15098 7.94557C3.34026 5.76817 4.96643 4.07328 7.02944 2.86087C9.11677 1.62372 11.4589 1.00515 14.0559 1.00515C15.949 1.00515 17.6844 1.33918 19.262 2.00724C20.8639 2.65056 22.2109 3.52894 23.3031 4.64237C24.3953 5.75581 25.1841 7.00535 25.6695 8.39094L20.6819 10.8405C20.1964 9.45491 19.3712 8.34147 18.2062 7.50019C17.0412 6.6342 15.6578 6.20119 14.0559 6.20119C12.4783 6.20119 11.0706 6.58469 9.83273 7.35174C8.6192 8.09403 7.67263 9.15799 6.99303 10.5436C6.33771 11.9045 6.01005 13.4756 6.01005 15.2571C6.01005 17.0386 6.34988 18.6222 7.02944 20.0078C7.73332 21.3687 8.70413 22.4326 9.94195 23.1997C11.2041 23.9667 12.6239 24.3502 14.2015 24.3502C15.4636 24.3502 16.6286 24.1028 17.6965 23.6079C18.7887 23.1131 19.6625 22.4079 20.3178 21.4924C20.9731 20.5522 21.3008 19.4634 21.3008 18.2263V18.1521H14.0559V13.3272H26.9438V16.2592C26.9438 19.1294 26.337 21.5666 25.1234 23.5708C23.9099 25.575 22.3323 27.0719 20.3906 28.0617C18.4489 29.0514 16.3859 29.5462 14.2015 29.5462ZM28.2075 8.83632H33.6684V29.1009H28.2075V8.83632ZM27.8798 3.12068C27.8798 2.10621 28.1468 1.33918 28.6808 0.819574C29.2147 0.275225 29.9671 0.00305176 30.938 0.00305176C31.9331 0.00305176 32.6855 0.275225 33.1952 0.819574C33.7291 1.33918 33.9961 2.10621 33.9961 3.12068C33.9961 4.13514 33.7291 4.91453 33.1952 5.45889C32.6855 5.9785 31.9331 6.2383 30.938 6.2383C29.9671 6.2383 29.2147 5.96614 28.6808 5.42178C28.1468 4.87742 27.8798 4.1104 27.8798 3.12068ZM45.4194 29.3236C43.0165 29.3236 41.1475 28.6679 39.8126 27.3565C38.502 26.0204 37.8467 24.1646 37.8467 21.7893V13.6612H34.4973V8.83632H34.6793C35.6987 8.83632 36.4753 8.57652 37.0093 8.05691C37.5675 7.53731 37.8467 6.7579 37.8467 5.7187V4.23411H43.3078V8.83632H47.9678V13.6612H43.3078V21.4182C43.3078 22.4574 43.5866 23.2368 44.1451 23.7564C44.7032 24.2512 45.5526 24.4987 46.6936 24.4987C47.0333 24.4987 47.4581 24.4615 47.9678 24.3873V29.138C47.1669 29.2617 46.3171 29.3236 45.4194 29.3236ZM49.748 1.45052H55.391V13.4014H65.9489V1.45052H71.5919V29.1009H65.9489V18.4119H55.391V29.1009H49.748V1.45052ZM81.3277 29.5462C78.9489 29.5462 77.0922 28.7916 75.7575 27.2823C74.4469 25.7482 73.7916 23.6945 73.7916 21.1212V8.83632H79.2525V20.6759C79.2525 21.8388 79.5802 22.779 80.2355 23.4966C80.9148 24.1894 81.801 24.5358 82.8932 24.5358C83.9854 24.5358 84.8591 24.1894 85.5145 23.4966C86.1938 22.779 86.5338 21.8388 86.5338 20.6759V8.83632H91.9948V29.1009H86.8979V26.6513C86.3882 27.6163 85.6477 28.3462 84.6771 28.8411C83.7305 29.3112 82.6139 29.5462 81.3277 29.5462ZM105.306 29.5462C104.068 29.5462 102.927 29.3483 101.884 28.9524C100.84 28.5318 99.9666 27.938 99.2624 27.1709V29.1009H94.1655V1.00515H99.6265V10.5436C100.306 9.85077 101.132 9.31881 102.102 8.94766C103.098 8.57652 104.177 8.39094 105.342 8.39094C107.211 8.39094 108.91 8.86108 110.439 9.8013C111.993 10.7415 113.219 12.0158 114.116 13.6241C115.014 15.2324 115.463 17.0139 115.463 18.9686C115.463 20.9233 115.014 22.7048 114.116 24.3131C113.243 25.9214 112.029 27.1957 110.476 28.1359C108.947 29.0761 107.223 29.5462 105.306 29.5462ZM99.6265 18.9686C99.6265 20.6264 100.088 21.9749 101.01 23.0141C101.957 24.0285 103.17 24.5358 104.651 24.5358C106.156 24.5358 107.393 24.0162 108.364 22.977C109.335 21.9378 109.82 20.6016 109.82 18.9686C109.82 17.3603 109.335 16.0365 108.364 14.9973C107.393 13.9334 106.156 13.4014 104.651 13.4014C103.17 13.4014 101.957 13.921 101.01 14.9602C100.088 15.9994 99.6265 17.3356 99.6265 18.9686Z" fill="#333333" fill-opacity="0.15"/>
<path d="M14.2015 29.5462C11.6288 29.5462 9.28663 28.9277 7.17506 27.6905C5.06349 26.4534 3.40094 24.7461 2.18739 22.5687C0.973839 20.3913 0.367065 17.9541 0.367065 15.2571C0.367065 12.5601 0.961705 10.123 2.15098 7.94557C3.34026 5.76817 4.96643 4.07328 7.02944 2.86087C9.11677 1.62372 11.4589 1.00515 14.0559 1.00515C15.949 1.00515 17.6844 1.33918 19.262 2.00724C20.8639 2.65056 22.2109 3.52894 23.3031 4.64237C24.3953 5.75581 25.1841 7.00535 25.6695 8.39094L20.6819 10.8405C20.1964 9.45491 19.3712 8.34147 18.2062 7.50019C17.0412 6.6342 15.6578 6.20119 14.0559 6.20119C12.4783 6.20119 11.0706 6.58469 9.83273 7.35174C8.6192 8.09403 7.67263 9.15799 6.99303 10.5436C6.33771 11.9045 6.01005 13.4756 6.01005 15.2571C6.01005 17.0386 6.34988 18.6222 7.02944 20.0078C7.73332 21.3687 8.70413 22.4326 9.94195 23.1997C11.2041 23.9667 12.6239 24.3502 14.2015 24.3502C15.4636 24.3502 16.6286 24.1028 17.6965 23.6079C18.7887 23.1131 19.6625 22.4079 20.3178 21.4924C20.9731 20.5522 21.3008 19.4634 21.3008 18.2263V18.1521H14.0559V13.3272H26.9438V16.2592C26.9438 19.1294 26.337 21.5666 25.1234 23.5708C23.9099 25.575 22.3323 27.0719 20.3906 28.0617C18.4489 29.0514 16.3859 29.5462 14.2015 29.5462ZM28.2075 8.83632H33.6684V29.1009H28.2075V8.83632ZM27.8798 3.12068C27.8798 2.10621 28.1468 1.33918 28.6808 0.819574C29.2147 0.275225 29.9671 0.00305176 30.938 0.00305176C31.9331 0.00305176 32.6855 0.275225 33.1952 0.819574C33.7291 1.33918 33.9961 2.10621 33.9961 3.12068C33.9961 4.13514 33.7291 4.91453 33.1952 5.45889C32.6855 5.9785 31.9331 6.2383 30.938 6.2383C29.9671 6.2383 29.2147 5.96614 28.6808 5.42178C28.1468 4.87742 27.8798 4.1104 27.8798 3.12068ZM45.4194 29.3236C43.0165 29.3236 41.1475 28.6679 39.8126 27.3565C38.502 26.0204 37.8467 24.1646 37.8467 21.7893V13.6612H34.4973V8.83632H34.6793C35.6987 8.83632 36.4753 8.57652 37.0093 8.05691C37.5675 7.53731 37.8467 6.7579 37.8467 5.7187V4.23411H43.3078V8.83632H47.9678V13.6612H43.3078V21.4182C43.3078 22.4574 43.5866 23.2368 44.1451 23.7564C44.7032 24.2512 45.5526 24.4987 46.6936 24.4987C47.0333 24.4987 47.4581 24.4615 47.9678 24.3873V29.138C47.1669 29.2617 46.3171 29.3236 45.4194 29.3236ZM49.748 1.45052H55.391V13.4014H65.9489V1.45052H71.5919V29.1009H65.9489V18.4119H55.391V29.1009H49.748V1.45052ZM81.3277 29.5462C78.9489 29.5462 77.0922 28.7916 75.7575 27.2823C74.4469 25.7482 73.7916 23.6945 73.7916 21.1212V8.83632H79.2525V20.6759C79.2525 21.8388 79.5802 22.779 80.2355 23.4966C80.9148 24.1894 81.801 24.5358 82.8932 24.5358C83.9854 24.5358 84.8591 24.1894 85.5145 23.4966C86.1938 22.779 86.5338 21.8388 86.5338 20.6759V8.83632H91.9948V29.1009H86.8979V26.6513C86.3882 27.6163 85.6477 28.3462 84.6771 28.8411C83.7305 29.3112 82.6139 29.5462 81.3277 29.5462ZM105.306 29.5462C104.068 29.5462 102.927 29.3483 101.884 28.9524C100.84 28.5318 99.9666 27.938 99.2624 27.1709V29.1009H94.1655V1.00515H99.6265V10.5436C100.306 9.85077 101.132 9.31881 102.102 8.94766C103.098 8.57652 104.177 8.39094 105.342 8.39094C107.211 8.39094 108.91 8.86108 110.439 9.8013C111.993 10.7415 113.219 12.0158 114.116 13.6241C115.014 15.2324 115.463 17.0139 115.463 18.9686C115.463 20.9233 115.014 22.7048 114.116 24.3131C113.243 25.9214 112.029 27.1957 110.476 28.1359C108.947 29.0761 107.223 29.5462 105.306 29.5462ZM99.6265 18.9686C99.6265 20.6264 100.088 21.9749 101.01 23.0141C101.957 24.0285 103.17 24.5358 104.651 24.5358C106.156 24.5358 107.393 24.0162 108.364 22.977C109.335 21.9378 109.82 20.6016 109.82 18.9686C109.82 17.3603 109.335 16.0365 108.364 14.9973C107.393 13.9334 106.156 13.4014 104.651 13.4014C103.17 13.4014 101.957 13.921 101.01 14.9602C100.088 15.9994 99.6265 17.3356 99.6265 18.9686Z" fill="url(#paint0_linear_1511_48)"/>
</g>
<defs>
<linearGradient id="paint0_linear_1511_48" x1="0.367065" y1="2.5444" x2="115.408" y2="15.2777" gradientUnits="userSpaceOnUse">
<stop stop-color="#333333"/>
<stop offset="0.5" stop-color="#222222"/>
<stop offset="0.66" stop-color="#333333"/>
<stop offset="1" stop-color="#111111"/>
</linearGradient>
<clipPath id="clip0_1511_48">
<rect width="115.839" height="29.9447" fill="white"/>
</clipPath>
</defs>
</svg>
