<svg width="129" height="32" viewBox="0 0 129 32" fill="none" xmlns="http://www.w3.org/2000/svg">
<g clip-path="url(#clip0_1511_52)">
<path fill-rule="evenodd" clip-rule="evenodd" d="M126.122 0H98.7567C97.4477 0 96.3361 1.01617 96.3361 2.26799V29.2512C96.3361 30.5046 97.0655 31.5207 98.3744 31.5207H125.74C127.05 31.5207 128.448 30.5046 128.448 29.2512V2.26799C128.448 1.01617 127.432 0 126.122 0ZM108.569 12.0079H112.892V14.1708H112.939C113.598 13.0046 115.545 11.8203 117.952 11.8203C122.571 11.8203 123.86 14.2279 123.86 18.6873V27.0178H119.273V19.5083C119.273 17.512 118.461 15.7604 116.562 15.7604C114.256 15.7604 113.156 17.2929 113.156 19.8085V27.0178H108.569V12.0079ZM100.923 27.0178H105.511V12.0079H100.923V27.0178ZM106.084 6.75444C106.084 7.12398 106.01 7.48992 105.867 7.83138C105.723 8.17284 105.512 8.48313 105.245 8.74452C104.979 9.00592 104.663 9.21329 104.316 9.35481C103.968 9.49634 103.595 9.56923 103.219 9.56933C102.842 9.56942 102.469 9.49673 102.122 9.35539C101.774 9.21405 101.458 9.00684 101.191 8.74558C100.925 8.48433 100.714 8.17415 100.57 7.83277C100.426 7.49138 100.352 7.12548 100.352 6.75594C100.351 6.00982 100.653 5.29423 101.191 4.76655C101.728 4.23887 102.457 3.94232 103.217 3.94212C103.977 3.94192 104.706 4.23809 105.244 4.76549C105.782 5.29289 106.084 6.00832 106.084 6.75444Z" fill="url(#paint0_linear_1511_52)"/>
<path d="M91.7495 27.018H87.468V25.2303H87.4221C86.4694 26.314 84.8149 27.2056 82.0105 27.2056C78.1877 27.2056 74.8954 24.3823 74.8954 19.5296C74.8954 14.9065 78.1403 11.8205 82.1542 11.8205C84.6391 11.8205 86.182 12.6881 87.1163 13.7958H87.1621V4.50317H91.7495V27.018ZM83.3072 15.1977C80.6847 15.1977 79.2106 17.0334 79.2106 19.474C79.2106 21.9161 80.6847 23.8284 83.3072 23.8284C85.9327 23.8284 87.468 21.9657 87.468 19.474C87.468 16.9133 85.9327 15.1977 83.3072 15.1977ZM72.8816 24.5999C71.7989 25.9763 69.5695 27.2056 65.9699 27.2056C61.1684 27.2056 58.1102 24.0836 58.1102 19.1798C58.1102 14.8225 60.8794 11.8205 66.1045 11.8205C70.6169 11.8205 73.4 14.7294 73.4 19.8463C73.4 20.3566 73.3158 20.8639 73.3158 20.8639H62.4376L62.4636 21.3277C62.7648 22.6216 63.7603 24.2036 66.0448 24.2036C68.0388 24.2036 69.4059 23.1514 70.0236 22.3274L72.8816 24.5999ZM68.9853 18.0106C69.0159 16.4285 67.8324 14.8225 65.9668 14.8225C63.7465 14.8225 62.5615 16.5246 62.4376 18.0121H68.9853V18.0106Z" fill="#0A66C2"/>
<path d="M91.7495 27.018H87.468V25.2303H87.4221C86.4694 26.314 84.8149 27.2056 82.0105 27.2056C78.1877 27.2056 74.8954 24.3823 74.8954 19.5296C74.8954 14.9065 78.1403 11.8205 82.1542 11.8205C84.6391 11.8205 86.182 12.6881 87.1163 13.7958H87.1621V4.50317H91.7495V27.018ZM83.3072 15.1977C80.6847 15.1977 79.2106 17.0334 79.2106 19.474C79.2106 21.9161 80.6847 23.8284 83.3072 23.8284C85.9327 23.8284 87.468 21.9657 87.468 19.474C87.468 16.9133 85.9327 15.1977 83.3072 15.1977ZM72.8816 24.5999C71.7989 25.9763 69.5695 27.2056 65.9699 27.2056C61.1684 27.2056 58.1102 24.0836 58.1102 19.1798C58.1102 14.8225 60.8794 11.8205 66.1045 11.8205C70.6169 11.8205 73.4 14.7294 73.4 19.8463C73.4 20.3566 73.3158 20.8639 73.3158 20.8639H62.4376L62.4636 21.3277C62.7648 22.6216 63.7603 24.2036 66.0448 24.2036C68.0388 24.2036 69.4059 23.1514 70.0236 22.3274L72.8816 24.5999ZM68.9853 18.0106C69.0159 16.4285 67.8324 14.8225 65.9668 14.8225C63.7465 14.8225 62.5615 16.5246 62.4376 18.0121H68.9853V18.0106Z" fill="url(#paint1_linear_1511_52)"/>
<path d="M58.1084 12.0082H52.7565L47.4045 18.0121V4.50326H42.8171V27.0181H47.4045V19.5131L53.0608 27.0181H58.477L51.9919 18.8122L58.1084 12.0082ZM24.4676 12.0082H28.7904V14.1711H28.8378C29.4969 13.0048 31.4434 11.8206 33.8503 11.8206C38.4698 11.8206 39.7589 14.698 39.7589 18.6876V27.0181H35.1715V19.5086C35.1715 17.2992 34.3595 15.7607 32.4603 15.7607C30.1544 15.7607 29.0549 17.5528 29.0549 19.8088V27.0181H24.4676V12.0082ZM16.8219 27.0181H21.4093V12.0082H16.8219V27.0181ZM19.1171 9.45652C19.4839 9.465 19.8488 9.40142 20.1902 9.26949C20.5316 9.13757 20.8427 8.93997 21.1052 8.68832C21.3677 8.43666 21.5763 8.13603 21.7187 7.8041C21.8611 7.47218 21.9344 7.11565 21.9344 6.75549C21.9344 6.39533 21.8611 6.0388 21.7187 5.70687C21.5763 5.37494 21.3677 5.07431 21.1052 4.82266C20.8427 4.57101 20.5316 4.37341 20.1902 4.24148C19.8488 4.10956 19.4839 4.04597 19.1171 4.05446C18.3986 4.07109 17.7151 4.36296 17.2129 4.86769C16.7107 5.37242 16.4296 6.04996 16.4296 6.75549C16.4296 7.46102 16.7107 8.13856 17.2129 8.64329C17.7151 9.14802 18.3986 9.43989 19.1171 9.45652ZM4.58886 4.50326H0.00146484V27.0181H13.7636V22.5151H4.58886V4.50326Z" fill="#0A66C2"/>
<path d="M58.1084 12.0082H52.7565L47.4045 18.0121V4.50326H42.8171V27.0181H47.4045V19.5131L53.0608 27.0181H58.477L51.9919 18.8122L58.1084 12.0082ZM24.4676 12.0082H28.7904V14.1711H28.8378C29.4969 13.0048 31.4434 11.8206 33.8503 11.8206C38.4698 11.8206 39.7589 14.698 39.7589 18.6876V27.0181H35.1715V19.5086C35.1715 17.2992 34.3595 15.7607 32.4603 15.7607C30.1544 15.7607 29.0549 17.5528 29.0549 19.8088V27.0181H24.4676V12.0082ZM16.8219 27.0181H21.4093V12.0082H16.8219V27.0181ZM19.1171 9.45652C19.4839 9.465 19.8488 9.40142 20.1902 9.26949C20.5316 9.13757 20.8427 8.93997 21.1052 8.68832C21.3677 8.43666 21.5763 8.13603 21.7187 7.8041C21.8611 7.47218 21.9344 7.11565 21.9344 6.75549C21.9344 6.39533 21.8611 6.0388 21.7187 5.70687C21.5763 5.37494 21.3677 5.07431 21.1052 4.82266C20.8427 4.57101 20.5316 4.37341 20.1902 4.24148C19.8488 4.10956 19.4839 4.04597 19.1171 4.05446C18.3986 4.07109 17.7151 4.36296 17.2129 4.86769C16.7107 5.37242 16.4296 6.04996 16.4296 6.75549C16.4296 7.46102 16.7107 8.13856 17.2129 8.64329C17.7151 9.14802 18.3986 9.43989 19.1171 9.45652ZM4.58886 4.50326H0.00146484V27.0181H13.7636V22.5151H4.58886V4.50326Z" fill="url(#paint2_linear_1511_52)"/>
</g>
<defs>
<linearGradient id="paint0_linear_1511_52" x1="96.3361" y1="2.71146" x2="128.798" y2="3.65104" gradientUnits="userSpaceOnUse">
<stop stop-color="#333333"/>
<stop offset="0.5" stop-color="#222222"/>
<stop offset="0.66" stop-color="#333333"/>
<stop offset="1" stop-color="#111111"/>
</linearGradient>
<linearGradient id="paint1_linear_1511_52" x1="58.1102" y1="6.45607" x2="92.085" y2="7.88634" gradientUnits="userSpaceOnUse">
<stop stop-color="#333333"/>
<stop offset="0.5" stop-color="#222222"/>
<stop offset="0.66" stop-color="#333333"/>
<stop offset="1" stop-color="#111111"/>
</linearGradient>
<linearGradient id="paint2_linear_1511_52" x1="0.00146484" y1="6.02914" x2="58.8567" y2="10.287" gradientUnits="userSpaceOnUse">
<stop stop-color="#333333"/>
<stop offset="0.5" stop-color="#222222"/>
<stop offset="0.66" stop-color="#333333"/>
<stop offset="1" stop-color="#111111"/>
</linearGradient>
<clipPath id="clip0_1511_52">
<rect width="128.447" height="31.5207" fill="white"/>
</clipPath>
</defs>
</svg>
