<svg width="123" height="55" viewBox="0 0 123 55" fill="none" xmlns="http://www.w3.org/2000/svg">
<g filter="url(#filter0_ii_1511_33)">
<path fill-rule="evenodd" clip-rule="evenodd" d="M7.77813 9.50578L21.3267 9.61614L13.7389 21.1195H23L5.37662 44.1371L2.56539 45.5L1.43337 44.943L6.16897 30.3006H0L4.4488 10.8655L7.26003 9.5L7.77813 9.50578Z" fill="url(#paint0_linear_1511_33)"/>
</g>
<g filter="url(#filter1_ii_1511_33)">
<path fill-rule="evenodd" clip-rule="evenodd" d="M20.1596 10.2296L7.77474 10.1276L3.60944 28.3101H9.85442L4.85844 43.7649L21.7185 21.7438H12.5606L20.1596 10.2296Z" fill="url(#paint1_linear_1511_33)"/>
</g>
<g filter="url(#filter2_ii_1511_33)">
<path d="M35.9635 42L29.9965 12.984L36.2365 12.75L39.3175 30.261L42.6325 12.984L47.3125 12.75L50.3935 30.456L54.0985 12.984L59.3635 12.75L53.0845 42H47.4295L44.3485 24.138L41.1895 42H35.9635ZM60.4716 42V12.75H75.3306L74.8626 17.313H66.2046V24.294H72.3666L72.3276 29.208H66.2046V37.437H75.6426L75.1746 42H60.4716ZM96.9521 42.234V20.277L91.4921 42H87.9821L82.0931 20.199V41.766L77.3741 42V13.023L85.7591 12.789L90.5951 30.885L95.2361 13.452L102.88 12.984V41.766L96.9521 42.234ZM106.388 42V12.75H121.247L120.779 17.313H112.121V24.294H118.283L118.244 29.208H112.121V37.437H121.559L121.091 42H106.388Z" fill="white"/>
<path d="M35.9635 42L29.9965 12.984L36.2365 12.75L39.3175 30.261L42.6325 12.984L47.3125 12.75L50.3935 30.456L54.0985 12.984L59.3635 12.75L53.0845 42H47.4295L44.3485 24.138L41.1895 42H35.9635ZM60.4716 42V12.75H75.3306L74.8626 17.313H66.2046V24.294H72.3666L72.3276 29.208H66.2046V37.437H75.6426L75.1746 42H60.4716ZM96.9521 42.234V20.277L91.4921 42H87.9821L82.0931 20.199V41.766L77.3741 42V13.023L85.7591 12.789L90.5951 30.885L95.2361 13.452L102.88 12.984V41.766L96.9521 42.234ZM106.388 42V12.75H121.247L120.779 17.313H112.121V24.294H118.283L118.244 29.208H112.121V37.437H121.559L121.091 42H106.388Z" fill="url(#paint2_linear_1511_33)"/>
</g>
<defs>
<filter id="filter0_ii_1511_33" x="0" y="8.5" width="23" height="39" filterUnits="userSpaceOnUse" color-interpolation-filters="sRGB">
<feFlood flood-opacity="0" result="BackgroundImageFix"/>
<feBlend mode="normal" in="SourceGraphic" in2="BackgroundImageFix" result="shape"/>
<feColorMatrix in="SourceAlpha" type="matrix" values="0 0 0 0 0 0 0 0 0 0 0 0 0 0 0 0 0 0 127 0" result="hardAlpha"/>
<feOffset dy="2"/>
<feGaussianBlur stdDeviation="1"/>
<feComposite in2="hardAlpha" operator="arithmetic" k2="-1" k3="1"/>
<feColorMatrix type="matrix" values="0 0 0 0 0 0 0 0 0 0 0 0 0 0 0 0 0 0 0.1 0"/>
<feBlend mode="normal" in2="shape" result="effect1_innerShadow_1511_33"/>
<feColorMatrix in="SourceAlpha" type="matrix" values="0 0 0 0 0 0 0 0 0 0 0 0 0 0 0 0 0 0 127 0" result="hardAlpha"/>
<feOffset dy="-1"/>
<feGaussianBlur stdDeviation="1"/>
<feComposite in2="hardAlpha" operator="arithmetic" k2="-1" k3="1"/>
<feColorMatrix type="matrix" values="0 0 0 0 1 0 0 0 0 1 0 0 0 0 1 0 0 0 0.6 0"/>
<feBlend mode="normal" in2="effect1_innerShadow_1511_33" result="effect2_innerShadow_1511_33"/>
</filter>
<filter id="filter1_ii_1511_33" x="3.60944" y="8.12756" width="18.1091" height="36.6373" filterUnits="userSpaceOnUse" color-interpolation-filters="sRGB">
<feFlood flood-opacity="0" result="BackgroundImageFix"/>
<feBlend mode="normal" in="SourceGraphic" in2="BackgroundImageFix" result="shape"/>
<feColorMatrix in="SourceAlpha" type="matrix" values="0 0 0 0 0 0 0 0 0 0 0 0 0 0 0 0 0 0 127 0" result="hardAlpha"/>
<feOffset dy="-2"/>
<feGaussianBlur stdDeviation="1"/>
<feComposite in2="hardAlpha" operator="arithmetic" k2="-1" k3="1"/>
<feColorMatrix type="matrix" values="0 0 0 0 0 0 0 0 0 0 0 0 0 0 0 0 0 0 0.1 0"/>
<feBlend mode="normal" in2="shape" result="effect1_innerShadow_1511_33"/>
<feColorMatrix in="SourceAlpha" type="matrix" values="0 0 0 0 0 0 0 0 0 0 0 0 0 0 0 0 0 0 127 0" result="hardAlpha"/>
<feOffset dy="1"/>
<feGaussianBlur stdDeviation="1"/>
<feComposite in2="hardAlpha" operator="arithmetic" k2="-1" k3="1"/>
<feColorMatrix type="matrix" values="0 0 0 0 1 0 0 0 0 1 0 0 0 0 1 0 0 0 0.6 0"/>
<feBlend mode="normal" in2="effect1_innerShadow_1511_33" result="effect2_innerShadow_1511_33"/>
</filter>
<filter id="filter2_ii_1511_33" x="29.9965" y="11.75" width="91.5625" height="30.984" filterUnits="userSpaceOnUse" color-interpolation-filters="sRGB">
<feFlood flood-opacity="0" result="BackgroundImageFix"/>
<feBlend mode="normal" in="SourceGraphic" in2="BackgroundImageFix" result="shape"/>
<feColorMatrix in="SourceAlpha" type="matrix" values="0 0 0 0 0 0 0 0 0 0 0 0 0 0 0 0 0 0 127 0" result="hardAlpha"/>
<feOffset dy="-1"/>
<feGaussianBlur stdDeviation="0.5"/>
<feComposite in2="hardAlpha" operator="arithmetic" k2="-1" k3="1"/>
<feColorMatrix type="matrix" values="0 0 0 0 0 0 0 0 0 0 0 0 0 0 0 0 0 0 0.3 0"/>
<feBlend mode="normal" in2="shape" result="effect1_innerShadow_1511_33"/>
<feColorMatrix in="SourceAlpha" type="matrix" values="0 0 0 0 0 0 0 0 0 0 0 0 0 0 0 0 0 0 127 0" result="hardAlpha"/>
<feOffset dy="0.5"/>
<feGaussianBlur stdDeviation="0.5"/>
<feComposite in2="hardAlpha" operator="arithmetic" k2="-1" k3="1"/>
<feColorMatrix type="matrix" values="0 0 0 0 1 0 0 0 0 1 0 0 0 0 1 0 0 0 0.6 0"/>
<feBlend mode="normal" in2="effect1_innerShadow_1511_33" result="effect2_innerShadow_1511_33"/>
</filter>
<linearGradient id="paint0_linear_1511_33" x1="11.5" y1="9.5" x2="11.5" y2="45.5" gradientUnits="userSpaceOnUse">
<stop stop-color="#111111"/>
<stop offset="1" stop-color="#444444"/>
</linearGradient>
<linearGradient id="paint1_linear_1511_33" x1="12.7525" y1="43.3993" x2="4.30975" y2="12.4118" gradientUnits="userSpaceOnUse">
<stop/>
<stop offset="1" stop-color="#D4D4D8"/>
</linearGradient>
<linearGradient id="paint2_linear_1511_33" x1="29" y1="4.73118" x2="123.882" y2="9.33837" gradientUnits="userSpaceOnUse">
<stop/>
<stop offset="0.5" stop-color="#111111"/>
<stop offset="0.66" stop-color="#555555"/>
<stop offset="1" stop-color="#D4D4D8"/>
</linearGradient>
</defs>
</svg>
