<svg width="130" height="30" viewBox="0 0 130 30" fill="none" xmlns="http://www.w3.org/2000/svg">
<g clip-path="url(#clip0_1511_50)">
<path d="M64.4713 7.48636C59.4475 7.48636 55.8253 10.8033 55.8253 15.7787C55.8253 20.7542 59.9026 24.0711 64.9264 24.0711C67.9616 24.0711 70.6373 22.8549 72.2937 20.8048L68.8125 18.7686C67.8933 19.7867 66.4963 20.381 64.9264 20.381C62.7467 20.381 60.8946 19.2293 60.2075 17.3865H72.9581C73.0582 16.8706 73.1173 16.3362 73.1173 15.7741C73.1173 10.8033 69.4951 7.48636 64.4713 7.48636ZM60.1665 14.1663C60.7353 12.3282 62.2916 11.1719 64.4668 11.1719C66.6465 11.1719 68.2027 12.3282 68.767 14.1663H60.1665ZM113.471 7.48636C108.448 7.48636 104.825 10.8033 104.825 15.7787C104.825 20.7542 108.903 24.0711 113.926 24.0711C116.962 24.0711 119.637 22.8549 121.294 20.8048L117.813 18.7686C116.893 19.7867 115.496 20.381 113.926 20.381C111.747 20.381 109.895 19.2293 109.208 17.3865H121.958C122.058 16.8706 122.117 16.3362 122.117 15.7741C122.117 10.8033 118.495 7.48636 113.471 7.48636ZM109.171 14.1663C109.74 12.3282 111.296 11.1719 113.471 11.1719C115.651 11.1719 117.207 12.3282 117.772 14.1663H109.171ZM91.4104 15.7787C91.4104 18.5429 93.1943 20.3856 95.961 20.3856C97.8358 20.3856 99.2419 19.5241 99.9654 18.119L103.46 20.1599C102.013 22.6015 99.3011 24.0711 95.961 24.0711C90.9326 24.0711 87.315 20.7542 87.315 15.7787C87.315 10.8033 90.9372 7.48636 95.961 7.48636C99.3011 7.48636 102.009 8.95595 103.46 11.3976L99.9654 13.4384C99.2419 12.0333 97.8358 11.1719 95.961 11.1719C93.1988 11.1719 91.4104 13.0146 91.4104 15.7787ZM128.943 2.4188V23.6104H124.848V2.4188H128.943ZM17.1049 0.115356L33.9191 29.5994H0.290649L17.1049 0.115356ZM59.1426 2.4188L46.5331 24.5318L33.9236 2.4188H38.6516L46.5331 16.2394L54.4146 2.4188H59.1426ZM85.9498 7.94705V12.4111C85.4948 12.2775 85.0124 12.1854 84.4936 12.1854C81.8498 12.1854 79.9431 14.0281 79.9431 16.7923V23.6104H75.8476V7.94705H79.9431V12.1854C79.9431 9.84508 82.6325 7.94705 85.9498 7.94705Z" fill="#333333" fill-opacity="0.15"/>
<path d="M64.4713 7.48636C59.4475 7.48636 55.8253 10.8033 55.8253 15.7787C55.8253 20.7542 59.9026 24.0711 64.9264 24.0711C67.9616 24.0711 70.6373 22.8549 72.2937 20.8048L68.8125 18.7686C67.8933 19.7867 66.4963 20.381 64.9264 20.381C62.7467 20.381 60.8946 19.2293 60.2075 17.3865H72.9581C73.0582 16.8706 73.1173 16.3362 73.1173 15.7741C73.1173 10.8033 69.4951 7.48636 64.4713 7.48636ZM60.1665 14.1663C60.7353 12.3282 62.2916 11.1719 64.4668 11.1719C66.6465 11.1719 68.2027 12.3282 68.767 14.1663H60.1665ZM113.471 7.48636C108.448 7.48636 104.825 10.8033 104.825 15.7787C104.825 20.7542 108.903 24.0711 113.926 24.0711C116.962 24.0711 119.637 22.8549 121.294 20.8048L117.813 18.7686C116.893 19.7867 115.496 20.381 113.926 20.381C111.747 20.381 109.895 19.2293 109.208 17.3865H121.958C122.058 16.8706 122.117 16.3362 122.117 15.7741C122.117 10.8033 118.495 7.48636 113.471 7.48636ZM109.171 14.1663C109.74 12.3282 111.296 11.1719 113.471 11.1719C115.651 11.1719 117.207 12.3282 117.772 14.1663H109.171ZM91.4104 15.7787C91.4104 18.5429 93.1943 20.3856 95.961 20.3856C97.8358 20.3856 99.2419 19.5241 99.9654 18.119L103.46 20.1599C102.013 22.6015 99.3011 24.0711 95.961 24.0711C90.9326 24.0711 87.315 20.7542 87.315 15.7787C87.315 10.8033 90.9372 7.48636 95.961 7.48636C99.3011 7.48636 102.009 8.95595 103.46 11.3976L99.9654 13.4384C99.2419 12.0333 97.8358 11.1719 95.961 11.1719C93.1988 11.1719 91.4104 13.0146 91.4104 15.7787ZM128.943 2.4188V23.6104H124.848V2.4188H128.943ZM17.1049 0.115356L33.9191 29.5994H0.290649L17.1049 0.115356ZM59.1426 2.4188L46.5331 24.5318L33.9236 2.4188H38.6516L46.5331 16.2394L54.4146 2.4188H59.1426ZM85.9498 7.94705V12.4111C85.4948 12.2775 85.0124 12.1854 84.4936 12.1854C81.8498 12.1854 79.9431 14.0281 79.9431 16.7923V23.6104H75.8476V7.94705H79.9431V12.1854C79.9431 9.84508 82.6325 7.94705 85.9498 7.94705Z" fill="url(#paint0_linear_1511_50)"/>
</g>
<defs>
<linearGradient id="paint0_linear_1511_50" x1="0.290649" y1="2.65162" x2="128.486" y2="18.5441" gradientUnits="userSpaceOnUse">
<stop stop-color="#333333"/>
<stop offset="0.5" stop-color="#222222"/>
<stop offset="0.66" stop-color="#333333"/>
<stop offset="1" stop-color="#111111"/>
</linearGradient>
<clipPath id="clip0_1511_50">
<rect width="129.235" height="29.9447" fill="white"/>
</clipPath>
</defs>
</svg>
