<svg width="90" height="49" viewBox="0 0 90 49" fill="none" xmlns="http://www.w3.org/2000/svg">
<path d="M78.2249 18.5649L2.22486 1.02646C1.59824 0.881861 1 1.35777 1 2.00086V24.4708C1 24.9261 1.30749 25.3239 1.74804 25.4386L84.8629 47.0779C85.2495 47.1786 85.6589 47.0395 85.9042 46.7241L88.4286 43.4784C88.7506 43.0645 88.6981 42.4721 88.3082 42.1212L79.331 34.0417C79.1203 33.8521 79 33.5819 79 33.2984V19.5393C79 19.0737 78.6786 18.6696 78.2249 18.5649Z" fill="#09543D" stroke="black" stroke-width="2"/>
<path d="M15.8484 19.9527C15.4621 21.736 15.0991 23.525 14.8004 25.3543L10.3241 24.2606C12.0358 18.8729 13.346 13.5107 14.3116 7.94069L18.788 9.03443C18.2384 10.7778 17.7236 12.4803 17.2441 14.2408C16.9986 15.1443 17.0479 15.6505 17.3276 15.7188C17.5608 15.7758 17.9436 15.5235 18.4295 14.9504C20.3156 12.7924 22.4182 9.7485 25.4257 10.4833C25.7988 10.5745 26.1837 10.718 26.5749 10.9371L26.1738 15.4097C23.5756 15.0219 21.5945 15.7485 19.887 16.4677C18.2831 16.9652 17.9273 17.9159 19.034 19.1499C19.8724 20.2689 20.7232 21.5391 21.8314 21.9581C23.1494 22.4284 24.4047 22.0434 24.718 20.7611C24.7522 20.6212 25.2009 20.7061 25.161 20.8693C24.6287 23.6546 23.4277 27.66 20.5833 26.965C17.3194 26.1675 18.1246 22.1642 17.6741 19.5588C17.5839 19.0179 17.3202 18.6817 17.0171 18.6077C16.5741 18.4994 16.0815 18.8979 15.8484 19.9527ZM27.0691 19.7049C28.4477 14.0629 32.3259 12.1446 36.3126 13.1187C40.2993 14.0928 42.8792 17.5891 41.5006 23.2311C40.122 28.8731 36.2206 30.7858 32.2339 29.8116C28.2471 28.8375 25.6906 25.347 27.0691 19.7049ZM31.1356 20.3527C30.4121 23.3136 30.9086 24.7196 33.3333 25.312C35.7813 25.9102 36.8702 24.8915 37.5936 21.9306C38.3 19.0396 37.8092 17.6103 35.3613 17.0122C32.9366 16.4197 31.842 17.4617 31.1356 20.3527ZM40.965 31.7474C42.7001 26.3654 44.0103 21.0031 44.9526 15.4275L55.2341 17.9396L54.6336 22.1164L48.3651 20.066C48.0627 21.2027 47.7716 22.2928 47.4692 23.4295L53.0874 24.7034L52.1702 28.4569C50.3761 28.2162 49.3227 27.1683 48.142 26.2374C47.6917 25.8556 47.3415 25.6712 47.0384 25.5971C46.3623 25.4319 46.0567 25.9749 46.1251 26.807C46.1719 27.9301 46.2616 29.4839 45.4413 32.8411L40.965 31.7474ZM53.098 34.7119C54.8331 29.3299 56.1433 23.9677 57.0856 18.392L67.3672 20.9042L66.7666 25.081L60.4981 23.0306C60.1957 24.1673 59.9047 25.2573 59.6022 26.394L65.2204 27.6679L64.3032 31.4215C62.5091 31.1808 61.4558 30.1328 60.275 29.2019C59.8247 28.8202 59.4745 28.6358 59.1714 28.5617C58.4953 28.3965 58.1897 28.9395 58.2581 29.7715C58.3049 30.8947 58.3947 32.4484 57.5744 35.8057L53.098 34.7119ZM65.231 37.6765C66.9428 32.2888 68.253 26.9265 69.2186 21.3566L73.6949 22.4503C71.9599 27.8323 70.6497 33.1945 69.7074 38.7702L65.231 37.6765Z" fill="white"/>
</svg>
