<svg width="101" height="126" viewBox="0 0 101 126" fill="none" xmlns="http://www.w3.org/2000/svg">
<style>
  @keyframes snapMotion {
    0%   { transform: rotate(0deg); }
    6%   { transform: rotate(-3deg); }
    12%  { transform: rotate(4deg); }
    18%  { transform: rotate(-1deg); }
    24%  { transform: rotate(0deg); }
    100% { transform: rotate(0deg); }
  }
  #hand-group {
    animation: snapMotion 2.4s cubic-bezier(.36,.07,.19,.97) infinite;
    transform-box: fill-box;
    transform-origin: 55% 75%;
  }

  @keyframes snapFlash {
    0%, 9%   { opacity: 0; transform: scale(0.3); }
    13%      { opacity: 1; transform: scale(1.25); }
    17%      { opacity: 1; transform: scale(1); }
    26%      { opacity: 0; transform: scale(1); }
    100%     { opacity: 0; transform: scale(1); }
  }
  #snap-lines {
    animation: snapFlash 2.4s ease-out infinite;
    transform-box: fill-box;
    transform-origin: 55px 10px;
  }
</style>

<g clip-path="url(#clip0_19_91)">
<mask id="mask0_19_91" style="mask-type:luminance" maskUnits="userSpaceOnUse" x="0" y="0" width="101" height="126">
<path d="M93.9616 0.353928L0.219727 5.26673L6.52745 125.625L100.269 120.712L93.9616 0.353928Z" fill="white"/>
</mask>
<g mask="url(#mask0_19_91)">

<g id="hand-group">
<path d="M75.2466 15.0672C77.4849 12.1274 80.892 10.4704 84.5917 10.2765C88.1344 10.1715 91.4638 11.6367 93.7275 14.3137C95.2496 16.1693 95.1895 18.6186 93.7206 20.3353C90.7061 23.8534 80.772 35.8788 79.9338 43.4762C80.7001 43.7317 81.4447 44.0959 82.1406 44.5432C83.9759 45.7104 85.2904 47.7114 85.9017 50.1523L87.3621 55.9626C88.9997 56.952 90.367 58.4125 91.2423 60.2483L92.7192 63.2891C94.7456 67.5911 94.7894 72.535 92.8642 76.8292C91.0108 80.9587 88.1095 84.5779 84.487 87.268C80.9419 89.8997 69.2155 94.3851 67.3489 94.6713C56.3578 96.2685 47.6449 99.7893 40.9678 103.687C41.1536 105.694 41.2011 107.627 41.1344 109.432C40.8451 116.221 38.7262 121.439 34.8261 123.444C31.6343 125.117 27.7489 124.326 23.7921 121.657C22.9837 121.108 22.143 120.453 21.3263 119.743C21.2444 119.721 21.188 119.67 21.1315 119.619C21.0752 119.568 20.7917 119.287 20.3374 118.828L20.3106 118.829C18.3584 116.969 16.4387 114.704 14.6348 112.084C14.2272 111.487 13.7928 110.891 13.4092 110.24L13.3824 110.241C12.5361 108.968 11.7379 107.585 10.989 106.119C10.9876 106.092 10.9594 106.067 10.9312 106.041C10.9298 106.015 10.9284 105.988 10.9002 105.963C10.659 105.464 10.3925 104.994 10.1513 104.497C10.0935 104.418 10.0639 104.366 10.0329 104.288C8.98925 102.326 8.01341 100.119 7.13778 97.7725C7.13498 97.719 7.10677 97.6937 7.10396 97.6402C7.09976 97.5599 7.0123 97.4298 7.00529 97.296C7.00529 97.296 7.00529 97.296 7.00248 97.2425L6.99965 97.1884C6.18048 94.8933 5.55873 92.7749 5.10206 90.7291C4.9019 89.9872 4.75392 89.2152 4.63418 88.4692C4.62854 88.3615 4.56932 88.2574 4.56227 88.123C4.52856 87.4797 4.95477 86.8928 5.59253 86.7521C17.6592 82.5983 28.2985 76.8531 38.055 69.1376C39.4746 68.0149 40.7897 66.9513 42.0485 65.8371C40.6145 61.5575 41.6515 55.6971 45.1916 48.3613C43.9109 46.493 38.6414 39.8071 32.8112 35.758C31.5274 34.8576 30.701 33.4494 30.5645 31.8706C30.4238 30.2114 30.9843 28.5961 32.133 27.4338C36.121 23.5152 42.1963 23.0086 46.7922 26.0741C51.3896 29.1664 56.9615 33.9279 59.3529 40.0657C62.5088 34.6317 69.7974 22.3955 75.3015 15.0912L75.2466 15.0672Z" fill="#FFFDF7"/>
<path d="M41.1343 109.431C40.8449 116.22 38.7261 121.439 34.826 123.444C31.6342 125.117 27.7488 124.325 23.792 121.657C22.9837 121.108 22.1429 120.453 21.3262 119.743C20.989 119.465 20.6505 119.16 20.3373 118.827L20.3106 118.829C18.3583 116.969 16.4386 114.704 14.6347 112.083C14.2271 111.487 13.7927 110.891 13.4091 110.239L13.3823 110.241C12.5925 109.018 11.8238 107.688 11.0792 106.302L10.9311 106.041C10.9311 106.041 10.8719 105.937 10.8691 105.883C10.6307 105.439 10.391 104.967 10.1513 104.496C10.0934 104.418 10.0638 104.366 10.0328 104.287C9.34176 102.899 8.64653 101.43 8.05713 99.9288C7.7483 99.1652 7.46772 98.4276 7.21251 97.6612C6.71334 96.343 6.26641 94.9959 5.84907 93.7003L6.98785 92.8615C7.3826 94.2388 7.80132 95.5605 8.24543 96.8541C8.24827 96.9083 8.27788 96.9604 8.30749 97.0124C8.3131 97.1194 8.37096 97.1975 8.40197 97.2764C9.24798 99.5707 10.1942 101.725 11.2392 103.713C15.1201 112.112 22.0487 118.657 22.0487 118.657C22.0487 118.657 27.707 109.678 40.81 102.217C40.8367 102.727 40.917 103.233 40.9691 103.714C41.1549 105.721 41.2024 107.654 41.1357 109.458L41.1343 109.431Z" fill="#332601"/>
<path d="M92.8642 76.83C91.0108 80.9594 88.1095 84.5786 84.487 87.2687C80.9419 89.9005 69.2155 94.3858 67.3489 94.672C56.3578 96.2692 47.6449 99.79 40.9678 103.688C28.6803 110.81 23.2607 119.213 23.1873 119.351C22.9629 119.685 22.6256 119.918 22.225 119.966L22.1177 119.971C21.8228 119.987 21.5506 119.921 21.3263 119.744C21.2444 119.721 21.188 119.671 21.1316 119.62C21.0752 119.569 20.7917 119.288 20.3374 118.828L20.3106 118.83C18.9453 117.396 16.0946 114.293 13.4092 110.24L13.3824 110.242C12.5361 108.969 11.7379 107.586 10.989 106.12C10.9876 106.093 10.9594 106.067 10.9312 106.042C10.9298 106.015 10.9284 105.989 10.9002 105.963C10.659 105.465 10.3925 104.995 10.1513 104.497C10.0935 104.419 10.0639 104.367 10.0329 104.288C8.98926 102.327 8.01345 100.12 7.13778 97.7733C7.13498 97.7198 7.10677 97.6944 7.10397 97.6409C7.09976 97.5607 7.0123 97.4305 7.00529 97.2968C7.00529 97.2968 7.00529 97.2968 7.00249 97.2433L6.99965 97.1891C6.18048 94.894 5.55873 92.7757 5.10206 90.7298C4.9019 89.988 4.75392 89.216 4.63418 88.47C4.62854 88.3623 4.56932 88.2581 4.56231 88.1244C4.52856 87.4805 4.95477 86.8936 5.59253 86.7529C17.6592 82.599 28.2985 76.8539 38.055 69.1384C39.4746 68.0156 40.7898 66.9522 42.0485 65.8378C42.3081 65.6629 42.5381 65.4359 42.7696 65.2355C43.3087 64.7503 44.1707 64.7858 44.6573 65.3517C44.7702 65.4532 44.8322 65.6113 44.8928 65.7425C45.1085 66.2688 44.9518 66.8684 44.5412 67.2394C44.1305 67.6104 43.7199 67.9813 43.281 68.3269C42.1507 69.3269 40.964 70.2763 39.6981 71.2565C29.9671 78.9435 19.4111 84.7386 7.45441 88.9403C7.52908 89.3394 7.60375 89.7385 7.70387 90.11C8.15773 92.1024 8.77524 94.1399 9.56481 96.3829C9.59442 96.4349 9.59726 96.4891 9.62687 96.5412C9.62967 96.5947 9.66068 96.6735 9.66348 96.727L9.67053 96.8614C10.4855 99.0763 11.4021 101.179 12.4161 103.088C15.2647 109.229 19.7825 114.395 21.8588 116.571C25.4238 111.761 38.9829 96.0775 66.9685 92.0308C68.2228 91.8571 79.6887 87.5202 82.8707 85.1489C86.1568 82.7191 88.7554 79.4644 90.4152 75.7487C92.0286 72.1696 91.9748 68.0596 90.2805 64.4659L88.8311 61.4238C87.2627 58.1728 83.6286 56.5353 80.1625 57.5772L72.1929 59.9034C68.9902 60.8508 66.955 64.0756 67.4509 67.3827C67.8158 69.7293 69.0245 71.7626 70.7876 73.095C72.1872 74.1501 73.9395 74.7576 75.6884 74.8C76.7651 74.8241 77.8306 74.6341 78.8856 74.2563C80.0202 73.8475 80.8246 72.7836 80.924 71.5956C80.9465 71.514 80.9691 71.4323 80.9648 71.3514L80.8946 70.0114C80.806 69.3442 81.2332 68.7841 81.8159 68.6188L82.0841 68.6047C82.8617 68.564 83.4796 69.0693 83.5457 69.8188L83.6286 71.4002C83.5939 73.8212 82.0404 75.9724 79.7996 76.816C78.4279 77.3177 77.014 77.5265 75.6431 77.5172C73.3277 77.4508 71.0279 76.6575 69.1817 75.2758C66.8583 73.5155 65.2675 70.8572 64.8209 67.9776C64.5307 66.0305 64.8062 64.1075 65.5798 62.4542C65.9651 61.6007 66.4887 60.8206 67.097 60.1167C68.2401 58.8472 69.7203 57.8556 71.4415 57.3623L79.4111 55.036C81.0517 54.5469 82.7153 54.4866 84.2896 54.7803C85.3776 55.019 86.4199 55.4214 87.3636 55.9902C89.0011 56.9796 90.3684 58.4402 91.2437 60.2759L92.7206 63.3166C94.747 67.6186 94.7909 72.5625 92.8656 76.8567L92.8642 76.83Z" fill="#332601"/>
<path d="M93.7207 20.3353C90.7061 23.8534 80.772 35.8788 79.9338 43.4762C79.8647 44.2056 79.1673 44.7528 78.4635 44.6553C77.707 44.5874 77.1884 43.9158 77.2574 43.1863L77.249 43.0255C78.2752 34.9076 87.6363 23.2347 91.6666 18.5882C92.2747 17.8843 92.329 16.86 91.7829 16.1897C89.921 14.0024 87.3615 12.8732 84.6246 12.9629C81.7778 13.0045 79.109 14.4078 77.3747 16.7029C70.2862 26.0794 60.1448 43.895 60.0474 44.0883C59.7497 44.5609 59.1994 44.8316 58.6576 44.7525C58.0876 44.648 57.6617 44.2133 57.5531 43.6814C56.1862 36.5759 49.2276 31 45.2143 28.2804C41.6763 25.9121 37.0189 26.2907 34.1049 29.1583C33.364 29.896 33.0859 30.7439 33.1577 31.6003C33.2265 32.4031 33.6116 33.0818 34.2534 33.532C40.0286 37.5571 48.173 46.7804 47.9398 48.4861C47.9482 48.6469 47.8762 48.812 47.776 48.9516C43.3791 57.8914 43.6362 62.797 44.6289 65.3255L44.8109 65.7192C45.7486 67.713 47.1763 68.2833 47.2313 68.3072C47.917 68.567 48.2794 69.3276 48.021 70.0398C47.8333 70.5606 47.3662 70.8808 46.8569 70.9075C46.6692 70.9173 46.5084 70.9257 46.3419 70.8272C46.2601 70.804 44.5897 70.2197 43.1991 68.3035C42.8493 67.7843 42.4953 67.1845 42.1879 66.448C42.0963 66.2378 42.0314 66.0261 41.9665 65.8145C40.5326 61.535 41.5695 55.6745 45.1096 48.3387C43.829 46.4705 38.5594 39.7845 32.7292 35.7355C31.4455 34.8351 30.6191 33.4268 30.4826 31.848C30.3418 30.1888 30.9023 28.5735 32.051 27.4112C36.039 23.4927 42.1143 22.9861 46.7103 26.0515C51.3076 29.1438 56.8795 33.9054 59.2709 40.0431C62.4269 34.6092 69.7151 22.3729 75.2193 15.0686C77.4575 12.1289 80.8653 10.4718 84.565 10.2779C88.1071 10.173 91.4364 11.6382 93.7009 14.3151C95.2222 16.1708 95.1628 18.62 93.6932 20.3367L93.7207 20.3353Z" fill="#332601"/>
<path d="M87.5 56.547C87.6724 57.2637 87.2261 57.986 86.5097 58.158C85.7925 58.33 85.0719 57.9107 84.9002 57.194L84.2882 54.7531L83.3012 50.7996C82.8587 49.0218 81.9236 47.5923 80.671 46.7709C79.4465 45.9749 78.0031 45.6205 76.5301 45.7246C74.0951 45.9329 71.8022 46.295 69.7296 46.753C65.4532 47.7298 62.6432 52.0704 63.517 56.433C63.882 58.2686 65.301 59.6996 67.0941 60.0625C67.2846 60.1063 67.5286 60.1473 67.7445 60.1629C68.4725 60.2054 69.0438 60.8474 68.9758 61.6036C68.9306 62.278 68.3943 62.8169 67.7241 62.852C67.6705 62.8548 67.6169 62.8576 67.5633 62.8604C66.8621 62.8166 66.2103 62.6894 65.5783 62.4268C63.197 61.6109 61.3689 59.5562 60.8841 56.9742C59.7483 51.2007 63.4531 45.4691 69.1379 44.1766C71.3429 43.6847 73.7428 43.317 76.3108 43.0749C76.6324 43.058 76.9541 43.0412 77.2757 43.0243C78.1913 43.057 79.0858 43.1983 79.9338 43.4764C80.7001 43.7319 81.4447 44.0961 82.1406 44.5435C83.9753 45.7108 85.2904 47.7116 85.9017 50.1526L87.3621 55.9629L87.5 56.547Z" fill="#332601"/>
<path d="M53.4436 80.6705C52.7467 80.707 52.1316 80.2552 52.0668 79.5324C51.3899 72.2568 54.5654 67.198 60.713 65.5049C61.4283 65.3062 62.176 65.7239 62.3748 66.4393C62.5736 67.1547 62.1557 67.9023 61.4404 68.1011C55.2124 69.7983 54.3577 75.0313 54.732 79.097C54.7982 79.8465 54.2718 80.5728 53.5226 80.6389L53.4422 80.6431L53.4436 80.6705Z" fill="#332601"/>
<path d="M78.2257 72.4369C77.6633 72.4664 77.1355 72.144 76.9182 71.5915C76.6402 70.9068 76.9753 70.1101 77.6608 69.859C77.9247 69.7647 84.0062 67.3221 88.1752 68.394C88.8831 68.5715 89.3243 69.3013 89.1469 70.0093C88.9688 70.7179 88.2389 71.1592 87.531 70.981C84.78 70.2925 80.2054 71.7418 78.6775 72.3321C78.5466 72.3933 78.3868 72.4285 78.2531 72.4355L78.2257 72.4369Z" fill="#332601"/>
</g>

<g id="snap-lines">
<path d="M40.2388 12.8434C39.5758 12.5019 39.3446 11.6807 39.7129 11.0162C40.0828 10.3786 40.9039 10.1474 41.5416 10.5172L51.123 15.875C51.7874 16.2434 52.0186 17.0645 51.6489 17.7022C51.4286 18.117 50.9842 18.3553 50.5553 18.3778C50.314 18.3904 50.0431 18.3508 49.8216 18.2281L40.2388 12.8434Z" fill="#FFFDF7"/>
<path d="M55.8847 15.9475L52.9527 4.11246C52.7793 3.36889 53.1985 2.64803 53.9152 2.47606C54.632 2.3041 55.3797 2.72188 55.5517 3.43864L58.5118 15.2991C58.6838 16.0158 58.2378 16.7381 57.5224 16.9369L57.2544 16.9509C56.6378 16.9832 56.0524 16.5838 55.8847 15.9475Z" fill="#FFFDF7"/>
<path d="M63.423 15.6593C63.155 15.6734 62.8545 15.5816 62.6034 15.4066C61.9897 14.9818 61.8389 14.1564 62.2638 13.5427L68.3662 4.83623C68.7913 4.22258 69.6182 4.0986 70.2319 4.52341C70.8455 4.94822 70.9693 5.77503 70.5442 6.38868L64.4672 15.067C64.2174 15.4295 63.8252 15.6383 63.423 15.6593Z" fill="#FFFDF7"/>
<path d="M58.5118 15.2991C58.6838 16.0158 58.2378 16.7381 57.5224 16.9369L57.2544 16.9509C56.6378 16.9832 56.0524 16.5838 55.8847 15.9475L52.9527 4.11246C52.7793 3.36889 53.1985 2.64803 53.9152 2.47606C54.632 2.3041 55.3797 2.72188 55.5517 3.43864L58.5118 15.2991Z" fill="#332601"/>
<path d="M51.6489 17.7022C51.4286 18.117 50.9842 18.3553 50.5553 18.3778C50.314 18.3904 50.0431 18.3508 49.8216 18.2281L40.2388 12.8434C39.5758 12.5019 39.3446 11.6807 39.7129 11.0162C40.0828 10.3786 40.9039 10.1474 41.5416 10.5172L51.123 15.875C51.7874 16.2434 52.0186 17.0645 51.6489 17.7022Z" fill="#332601"/>
<path d="M70.5442 6.38868L64.4672 15.067C64.2174 15.4295 63.8252 15.6383 63.423 15.6593C63.155 15.6734 62.8545 15.5816 62.6034 15.4066C61.9897 14.9818 61.8389 14.1564 62.2638 13.5427L68.3662 4.83623C68.7913 4.22258 69.6182 4.0986 70.2319 4.52341C70.8455 4.94822 70.9693 5.77503 70.5442 6.38868Z" fill="#332601"/>
</g>

</g>
</g>
<defs>
<clipPath id="clip0_19_91">
<rect width="94.4102" height="121.193" fill="white" transform="translate(0 4.94105) rotate(-3)"/>
</clipPath>
</defs>
</svg>
