<svg width="129" height="133" viewBox="0 0 129 133" fill="none" xmlns="http://www.w3.org/2000/svg">
<style>
  @keyframes waveMotion {
    0%   { transform: rotate(0deg); }
    10%  { transform: rotate(14deg); }
    25%  { transform: rotate(-6deg); }
    40%  { transform: rotate(12deg); }
    55%  { transform: rotate(-4deg); }
    70%  { transform: rotate(6deg); }
    85%  { transform: rotate(0deg); }
    100% { transform: rotate(0deg); }
  }
  #hand-group {
    animation: waveMotion 2.6s ease-in-out infinite;
    transform-box: fill-box;
    transform-origin: 68% 96%;
  }

  @keyframes flashTop {
    0%, 7%    { opacity: 0; }
    11%       { opacity: 1; }
    17%       { opacity: 0; }
    38%       { opacity: 0; }
    42%       { opacity: 1; }
    47%       { opacity: 0; }
    100%      { opacity: 0; }
  }
  #lines-top {
    animation: flashTop 2.6s ease-in-out infinite;
  }

  @keyframes flashBottom {
    0%, 22%   { opacity: 0; }
    26%       { opacity: 1; }
    32%       { opacity: 0; }
    52%       { opacity: 0; }
    56%       { opacity: 1; }
    61%       { opacity: 0; }
    100%      { opacity: 0; }
  }
  #lines-bottom {
    animation: flashBottom 2.6s ease-in-out infinite;
  }
</style>

<g clip-path="url(#clip0_19_124)">
<g clip-path="url(#clip1_19_124)">
<g clip-path="url(#clip2_19_124)">
<mask id="mask0_19_124" style="mask-type:luminance" maskUnits="userSpaceOnUse" x="0" y="0" width="129" height="132">
<path d="M128.092 11.5859L12.4297 0.245117L0.66864 120.194L116.331 131.534L128.092 11.5859Z" fill="white"/>
</mask>
<g mask="url(#mask0_19_124)">

<g id="hand-group">
<path d="M119.713 95.2262C120.015 99.5065 118.052 104.26 114.314 108.839C114.283 108.889 114.249 108.966 114.193 108.987C114.159 109.064 114.072 109.135 114.008 109.236C112.648 110.84 111.103 112.427 109.348 113.966C107.188 115.813 104.767 117.606 102.096 119.216C100.25 120.318 98.3305 121.36 96.2857 122.308C94.2409 123.258 92.1304 124.067 90.1141 124.725C90.0563 124.772 90.003 124.767 89.9477 124.788C89.8626 124.833 89.754 124.85 89.6721 124.868L89.6461 124.866C87.3784 125.633 85.1294 126.214 82.9279 126.586C80.4508 127.038 78.0711 127.313 75.7948 127.357L75.7415 127.352C75.4743 127.352 75.2065 127.353 74.966 127.356L74.6748 127.328C66.7986 127.223 60.5668 124.527 58.2087 119.404C55.3641 113.244 58.7477 105.181 66.1493 98.1277C65.8675 97.4583 65.5616 96.7602 65.2533 96.0881C62.8713 90.9358 60.292 86.4323 57.5819 82.7185C51.9259 82.057 46.5197 77.7572 41.7603 73.9489C39.2813 71.968 36.9506 70.1093 35.186 69.2944C32.6025 68.1055 25.186 66.0416 14.2607 63.5C11.4135 62.8199 9.01908 60.794 7.86755 58.088C6.77989 55.5486 6.9201 52.7554 8.24457 50.4259C9.52179 48.3055 11.9158 47.3373 14.1747 47.7459C18.6055 48.6348 33.301 51.4391 39.9383 51.6354C36.3731 47.9174 29.3226 40.7568 20.5718 33.2155C19.0205 31.8604 18.1063 30.0064 17.9832 27.9893C17.8867 25.9749 18.5554 24.0622 19.9053 22.5638C20.6503 21.7814 21.8024 20.6647 23.2515 19.7909C25.4991 18.4073 28.4963 18.6478 30.6546 20.3564C34.5972 23.4965 46.3826 32.8056 52.3688 37.1886C50.3015 31.8265 46.6595 22.6208 43.6695 16.58C42.6224 14.4456 42.4957 11.9203 43.3545 9.70545C44.1868 7.48801 45.8487 5.80639 48.0205 4.92328L49.0495 4.51626C51.7373 3.55007 54.7569 4.38081 56.5455 6.58789C60.2659 11.1765 67.3953 20.8044 75.3106 35.7757C75.6948 31.8569 76.602 27.2408 78.803 23.6071C80.6233 20.5776 84.1019 18.9137 87.7771 19.3276C89.4717 19.4937 90.9759 19.962 92.2214 20.6188C94.7632 21.964 96.0981 24.9821 95.4576 27.9668C94.5917 31.8919 92.58 41.5057 92.4637 45.9587C92.3997 48.5188 92.2485 54.9734 90.2766 60.9018C90.8898 62.8333 93.8161 71.7015 97.4629 81.9503C97.6488 82.5034 97.8622 83.0585 98.0722 83.6409C99.2344 83.514 100.391 83.4403 101.513 83.4434C101.805 83.472 102.101 83.4479 102.395 83.4498C102.554 83.4654 102.739 83.4836 102.872 83.4966C106.737 83.6084 110.138 84.3691 112.867 85.7064C115.52 87.0087 117.604 88.924 118.752 91.3893C119.303 92.5931 119.607 93.852 119.713 95.2262Z" fill="#FFFDF7"/>
<path d="M114.314 108.839C114.314 108.839 114.249 108.966 114.193 108.987C114.159 109.064 114.071 109.136 114.008 109.237C112.648 110.841 111.102 112.427 109.348 113.966C107.188 115.813 104.766 117.607 102.096 119.216C100.25 120.318 98.3304 121.36 96.2856 122.309C94.2408 123.258 92.1303 124.067 90.1141 124.725C90.0556 124.772 90.0029 124.767 89.947 124.789C89.8625 124.834 89.754 124.85 89.6721 124.869L89.6454 124.866C87.3783 125.633 85.1293 126.214 82.9272 126.586C80.4507 127.039 78.071 127.313 75.794 127.358L75.7414 127.353C75.4743 127.353 75.2064 127.353 74.9659 127.357L74.6747 127.328C66.7985 127.224 60.5666 124.528 58.2085 119.404C55.3639 113.244 58.7476 105.182 66.1492 98.128C66.4981 97.8413 66.8231 97.526 67.1746 97.2127C71.5433 107.185 74.3808 118.05 74.6453 125.988L74.6986 125.993C76.9749 125.95 79.3546 125.675 81.8317 125.223C84.0333 124.85 86.2822 124.269 88.5474 123.529L88.5734 123.531C88.5734 123.531 88.7664 123.47 88.8516 123.425C88.9068 123.404 88.9601 123.409 89.018 123.361C91.0342 122.703 93.1453 121.894 95.1895 120.945C97.2343 119.996 99.1542 118.955 101 117.852C103.671 116.243 106.092 114.449 108.252 112.602C104.634 105.056 100.329 93.8877 96.7168 83.8292C96.934 83.7967 97.1244 83.7622 97.3149 83.7271C97.5586 83.6978 97.8284 83.6704 98.0721 83.6412C99.2337 83.5142 100.391 83.4406 101.513 83.4437C101.804 83.4723 102.101 83.4482 102.395 83.4501C102.554 83.4657 102.739 83.4839 102.871 83.4968C106.737 83.6087 110.137 84.37 112.867 85.7067C115.52 87.0097 117.604 88.9249 118.752 91.3896C119.303 92.5934 119.606 93.853 119.713 95.2265C120.015 99.5068 118.052 104.26 114.314 108.839Z" fill="#332601"/>
<path d="M109.111 113.649C106.719 115.687 104.245 117.476 101.688 119.016C99.6439 120.233 97.6973 121.272 95.7376 122.176C93.7773 123.079 91.6902 123.918 89.481 124.636L89.3145 124.701C89.3145 124.701 89.1189 124.788 89.0104 124.804C89.0104 124.804 88.9837 124.801 88.9571 124.799C86.5547 125.579 84.2265 126.153 82.051 126.527C79.4653 126.996 77.1656 127.278 74.9685 127.331L74.6773 127.302C74.0416 127.24 73.3518 126.637 73.3056 126.018C73.0738 118.296 70.3324 107.815 66.1518 98.1021C65.8699 97.4326 65.5641 96.7346 65.2557 96.0625C62.8738 90.9102 60.2945 86.4066 57.5843 82.6929C51.9284 82.0313 46.5221 77.7316 41.7628 73.9232C39.2837 71.9423 36.9531 70.0837 35.1884 69.2687C32.605 68.0798 25.1884 66.0159 14.2632 63.4743C11.416 62.7942 9.02152 60.7683 7.86999 58.0623C6.78233 55.5229 6.92254 52.7297 8.24701 50.4002C9.52423 48.2798 11.9182 47.3116 14.1772 47.7202C18.6079 48.6091 33.3034 51.4134 39.9407 51.6097C36.3755 47.8917 29.325 40.7311 20.5743 33.1898C19.023 31.8347 18.1086 29.9807 17.9856 27.9637C17.8891 25.9492 18.5579 24.0365 19.9077 22.5382C20.6528 21.7557 21.8049 20.639 23.2539 19.7652C25.5015 18.3816 28.4987 18.6221 30.657 20.3307C34.5997 23.4708 46.3851 32.7799 52.3712 37.1629C50.3039 31.8008 46.6619 22.5951 43.672 16.5543C42.6248 14.4199 42.4982 11.8946 43.3569 9.67976C44.1892 7.46232 45.8511 5.7807 48.0229 4.89759L49.0519 4.49055C51.7398 3.52438 54.7594 4.35512 56.5479 6.5622C60.2684 11.1508 67.3977 20.7787 75.313 35.75C76.0807 37.1887 76.8434 38.6803 77.6035 40.1984C77.7153 40.4233 77.7712 40.6694 77.7505 40.8811L77.7453 40.9341C77.7012 41.3842 77.4477 41.7871 77.0272 41.9865C76.3532 42.3214 75.5504 42.0556 75.2396 41.4102C75.1966 41.2991 75.1251 41.2119 75.0822 41.1007C66.4455 23.9468 58.4668 13.1662 54.4598 8.22876C53.385 6.9204 51.5918 6.39704 49.9568 6.98525L48.9834 7.371C47.5364 7.95091 46.4056 9.12323 45.8313 10.6174C45.2519 12.1646 45.3215 13.9091 46.0576 15.3981C49.2283 21.7774 53.0779 31.5916 55.124 36.8983C55.5019 37.9512 55.152 39.0664 54.2849 39.7298C53.4205 40.3669 52.2689 40.3877 51.3967 39.7407C45.5803 35.5347 33.1028 25.6498 29.0091 22.4147C27.7205 21.3795 25.9438 21.232 24.6349 22.0393C23.7253 22.5917 22.8531 23.3082 21.8412 24.3585C21.0011 25.2919 20.5878 26.5078 20.6486 27.797C20.7331 29.1152 21.3125 30.2948 22.3229 31.1692C31.3946 38.9825 38.636 46.3758 42.1748 50.0911C42.8751 50.8549 43.0361 51.94 42.6249 52.862C42.2163 53.7576 41.3332 54.3126 40.3457 54.296C33.9124 54.1999 19.5533 51.5088 13.6793 50.3446C12.4742 50.0929 11.2204 50.6115 10.6134 51.6213C9.64515 53.3175 9.56154 55.2608 10.3247 57.0198C11.1518 58.9454 12.8542 60.3956 14.8909 60.8894C22.7067 62.6983 32.8033 65.2388 36.2798 66.8628C38.3518 67.8145 40.7089 69.6763 43.4107 71.839C48.0745 75.5311 53.3058 79.7067 58.4001 80.0992C58.7178 80.1304 59.1259 80.3305 59.3647 80.6217C62.3188 84.5733 65.1079 89.3915 67.6626 94.9623C72.2697 104.958 75.3706 116.142 75.9054 124.589C77.626 124.49 79.5182 124.274 81.5877 123.889C83.6255 123.554 85.7925 122.991 88.0285 122.275C88.113 122.23 88.1949 122.211 88.3034 122.195C88.3619 122.147 88.4438 122.129 88.499 122.108C88.5016 122.081 88.5816 122.089 88.6102 122.065C90.735 121.391 92.7376 120.598 94.6153 119.713C96.4905 118.855 98.3527 117.86 100.312 116.69C102.469 115.404 104.569 113.899 106.604 112.227C102.603 103.681 98.0928 91.6097 94.9727 82.8032C92.2897 75.2686 89.9896 68.4667 88.7085 64.6252C88.0296 62.5536 87.6407 61.3393 87.6167 61.3102C87.5133 61.006 87.5419 60.7147 87.6497 60.4312C87.6523 60.4048 87.6575 60.3518 87.6601 60.3253C87.8265 59.9941 88.0903 59.7527 88.4504 59.6276C89.1407 59.4012 89.9065 59.7703 90.1302 60.4873C90.1302 60.4873 90.1705 60.6249 90.2531 60.8737C90.8657 62.805 93.792 71.6733 97.4387 81.9221C97.6247 82.4752 97.838 83.0303 98.048 83.6126C101.242 92.4803 105.614 104.056 109.434 111.996C109.673 112.555 109.557 113.185 109.09 113.593L109.111 113.649Z" fill="#332601"/>
<path d="M95.4551 27.9924C94.5892 31.9174 92.5768 41.5311 92.4611 45.9841C92.3971 48.5443 92.2453 54.9988 90.274 60.9274C89.853 62.2227 89.3553 63.4838 88.7035 64.6764C88.3318 65.4687 87.8834 66.2267 87.3869 66.9265L85.8188 69.2857C85.5367 69.7125 85.0362 69.904 84.5864 69.8599C84.3745 69.8391 84.1411 69.7628 83.9663 69.6387C83.365 69.2322 83.2043 68.4145 83.6111 67.8128L85.2078 65.4297C86.2346 63.9531 87.0151 62.2652 87.6447 60.4824C87.6473 60.4559 87.6525 60.403 87.6551 60.3765C89.5419 54.7604 89.71 48.4145 89.7688 45.9073C89.8897 41.4013 91.7357 32.3861 92.8095 27.4389C93.2291 25.6087 92.4449 23.7942 90.9446 23.0054C89.9799 22.4832 88.8092 22.1545 87.435 21.9931C84.8557 21.5798 82.3248 22.8553 81.0452 25.0022C78.1345 29.8763 77.7059 36.972 77.7188 40.9297L77.7136 40.9827C77.7301 42.722 77.8063 43.8522 77.8304 43.8813C77.8929 44.6092 77.3749 45.2535 76.6209 45.3132C75.8929 45.3755 75.2487 44.8579 75.1861 44.1299C75.1725 43.995 75.0703 42.8621 75.0508 41.1493C75.0321 39.7039 75.0814 37.8374 75.2813 35.7986C75.6656 31.8797 76.5728 27.2637 78.7732 23.6299C80.5941 20.6005 84.0721 18.9365 87.748 19.3504C89.44 19.543 90.9468 19.9848 92.1923 20.6416C94.734 21.9869 96.0689 25.005 95.4284 27.9898L95.4551 27.9924Z" fill="#332601"/>
<path d="M42.682 57.7335C42.4437 57.7102 42.2106 57.6338 42.0118 57.4807C41.4127 57.0477 41.3078 56.2087 41.7408 55.6096C42.1738 55.0104 52.7415 41.0226 62.9502 38.6017C63.662 38.4309 64.3671 38.8744 64.5379 39.5862C64.7088 40.298 64.2654 41.003 63.5536 41.1738C54.2762 43.3652 43.9541 57.0295 43.8591 57.1806C43.5792 57.5809 43.1083 57.7486 42.6582 57.7045L42.682 57.7335Z" fill="#332601"/>
<path d="M65.314 72.5699C64.9433 72.5336 64.5882 72.3387 64.3545 71.995C55.8462 59.7992 69.7688 48.9473 69.9116 48.8544C70.4905 48.4032 71.3352 48.5127 71.7864 49.0916C72.2376 49.6705 72.128 50.5152 71.5491 50.9664C71.0574 51.346 59.5325 60.3745 66.5621 70.4737C66.9842 71.0765 66.8482 71.9187 66.2215 72.3116C65.9624 72.5001 65.6343 72.5751 65.343 72.5466L65.3166 72.544L65.314 72.5699Z" fill="#332601"/>
</g>

<g id="lines-bottom">
<path d="M22.6902 79.0112C27.6429 85.1691 33.3788 88.8425 40.4307 92.1692" stroke="#332601" stroke-width="2.66055" stroke-linecap="round"/>
<path d="M16.9451 87.6914C18.9496 89.9258 21.1072 91.4197 23.4711 93.2245" stroke="#332601" stroke-width="2.66055" stroke-linecap="round"/>
</g>

<g id="lines-top">
<path d="M107.646 16.6558C111.311 28.5109 109.319 40.8664 105.237 52.306" stroke="#332601" stroke-width="2.66055" stroke-linecap="round"/>
<path d="M118.11 26.3821C118.468 31.4494 118.204 36.5174 117.709 41.5672" stroke="#332601" stroke-width="2.66055" stroke-linecap="round"/>
</g>

</g>
</g>
</g>
</g>
<defs>
<clipPath id="clip0_19_124">
<rect width="117.181" height="121.192" fill="white" transform="translate(11.8264) rotate(5.6)"/>
</clipPath>
<clipPath id="clip1_19_124">
<rect width="117.181" height="121.192" fill="white" transform="translate(11.8264) rotate(5.6)"/>
</clipPath>
<clipPath id="clip2_19_124">
<rect width="117.176" height="121.193" fill="white" transform="translate(11.8254 -0.000549316) rotate(5.6)"/>
</clipPath>
</defs>
</svg>
