<svg width="111" height="34" viewBox="0 0 111 34" fill="none" xmlns="http://www.w3.org/2000/svg">
<path d="M17 11.3333L12.1833 8.5V2.83333L17 0L21.8167 2.83333V8.5L17 11.3333Z" fill="white"/>
<path d="M26.6333 17L21.8167 14.1667V8.5L26.6333 5.66667L31.45 8.5V14.1667L26.6333 17Z" fill="white"/>
<path d="M21.8167 25.5V19.8333L26.6333 17L31.45 19.8333V25.5L26.6333 28.3333L21.8167 25.5Z" fill="white"/>
<path d="M12.1833 25.5L17 22.6667L21.8167 25.5V31.1667L17 34L12.1833 31.1667V25.5Z" fill="white"/>
<path d="M7.36667 17L12.1833 19.8333V25.5L7.36667 28.3333L2.55 25.5V19.8333L7.36667 17Z" fill="white"/>
<path d="M7.36667 17L12.1833 14.1667V8.5L7.36667 5.66667L2.55 8.5V14.1667L7.36667 17Z" fill="white"/>
<path d="M40.8295 26H38.6136L45.0227 8.54545H47.2045L53.6136 26H51.3977L46.1818 11.3068H46.0455L40.8295 26ZM41.6477 19.1818H50.5795V21.0568H41.6477V19.1818ZM56.0597 30.9091V12.9091H58.0028V14.9886H58.2415C58.3892 14.7614 58.5938 14.4716 58.8551 14.1193C59.1222 13.7614 59.5028 13.4432 59.9972 13.1648C60.4972 12.8807 61.1733 12.7386 62.0256 12.7386C63.1278 12.7386 64.0994 13.0142 64.9403 13.5653C65.7813 14.1165 66.4375 14.8977 66.9091 15.9091C67.3807 16.9205 67.6165 18.1136 67.6165 19.4886C67.6165 20.875 67.3807 22.0767 66.9091 23.0938C66.4375 24.1051 65.7841 24.8892 64.9489 25.446C64.1136 25.9972 63.1506 26.2727 62.0597 26.2727C61.2188 26.2727 60.5455 26.1335 60.0398 25.8551C59.5341 25.571 59.1449 25.25 58.8722 24.892C58.5994 24.5284 58.3892 24.2273 58.2415 23.9886H58.071V30.9091H56.0597ZM58.0369 19.4545C58.0369 20.4432 58.1818 21.3153 58.4716 22.071C58.7614 22.821 59.1847 23.4091 59.7415 23.8352C60.2983 24.2557 60.9801 24.4659 61.7869 24.4659C62.6278 24.4659 63.3295 24.2443 63.892 23.8011C64.4602 23.3523 64.8864 22.75 65.1705 21.9943C65.4602 21.233 65.6051 20.3864 65.6051 19.4545C65.6051 18.5341 65.4631 17.7045 65.179 16.9659C64.9006 16.2216 64.4773 15.6335 63.9091 15.2017C63.3466 14.7642 62.6392 14.5455 61.7869 14.5455C60.9688 14.5455 60.2813 14.7528 59.7244 15.1676C59.1676 15.5767 58.7472 16.1506 58.4631 16.8892C58.179 17.6222 58.0369 18.4773 58.0369 19.4545ZM76.1733 26.2727C74.9119 26.2727 73.8239 25.9943 72.9091 25.4375C72 24.875 71.2983 24.0909 70.804 23.0852C70.3153 22.0739 70.071 20.8977 70.071 19.5568C70.071 18.2159 70.3153 17.0341 70.804 16.0114C71.2983 14.983 71.9858 14.1818 72.8665 13.608C73.7528 13.0284 74.7869 12.7386 75.9688 12.7386C76.6506 12.7386 77.3239 12.8523 77.9886 13.0795C78.6534 13.3068 79.2585 13.6761 79.804 14.1875C80.3494 14.6932 80.7841 15.3636 81.108 16.1989C81.4318 17.0341 81.5938 18.0625 81.5938 19.2841V20.1364H71.5028V18.3977H79.5483C79.5483 17.6591 79.4006 17 79.1051 16.4205C78.8153 15.8409 78.4006 15.3835 77.8608 15.0483C77.3267 14.7131 76.696 14.5455 75.9688 14.5455C75.1676 14.5455 74.4744 14.7443 73.8892 15.142C73.3097 15.5341 72.8636 16.0455 72.5511 16.6761C72.2386 17.3068 72.0824 17.983 72.0824 18.7045V19.8636C72.0824 20.8523 72.2528 21.6903 72.5938 22.3778C72.9403 23.0597 73.4205 23.5795 74.0341 23.9375C74.6477 24.2898 75.3608 24.4659 76.1733 24.4659C76.7017 24.4659 77.179 24.392 77.6051 24.2443C78.0369 24.0909 78.4091 23.8636 78.7216 23.5625C79.0341 23.2557 79.2756 22.875 79.446 22.4205L81.3892 22.9659C81.1847 23.625 80.8409 24.2045 80.358 24.7045C79.875 25.1989 79.2784 25.5852 78.5682 25.8636C77.858 26.1364 77.0597 26.2727 76.1733 26.2727ZM85.8018 12.9091L88.9382 18.2614L92.0746 12.9091H94.3928L90.1655 19.4545L94.3928 26H92.0746L88.9382 20.9205L85.8018 26H83.4837L87.6428 19.4545L83.4837 12.9091H85.8018Z" fill="white"/>
<path d="M105.359 14.8182L102.581 8.54545H103.706L105.649 13.1477L107.592 8.54545H108.717L105.939 14.8182H105.359ZM102.376 14.8182V8.54545H103.467V14.8182H102.376ZM107.831 14.8182V8.54545H108.922V14.8182H107.831ZM98.2855 14.8182V9.09091H99.3764V14.8182H98.2855ZM96.3764 9.5V8.54545H101.286V9.5H96.3764Z" fill="#8F8F8F"/>
</svg>
